<svg xmlns="http://www.w3.org/2000/svg" viewBox="0 0 100 100"><rect width="100" height="100" rx="22" fill="#141413"/><path fill="#faf9f5" d="M43.78 15.01A1.67 1.67 0 0 1 45.23 12.5L70.24 12.5A1.67 1.67 0 0 1 71.69 13.34L85.15 36.66A1.67 1.67 0 0 1 85.15 38.34L58.22 84.99A1.67 1.67 0 0 1 55.32 84.99L42.82 63.34A1.67 1.67 0 0 1 42.82 61.66L56.33 38.25A1.5 1.5 0 0 0 56.33 36.75Z"/><path fill="#faf9f5" d="M9.15 62.5A1.67 1.67 0 0 1 7.7 59.99L19.23 40.01A1.67 1.67 0 0 1 22.13 40.01L33.67 59.99A1.67 1.67 0 0 1 32.22 62.5Z"/></svg>
